<svg xmlns="http://www.w3.org/2000/svg" xmlns:xlink="http://www.w3.org/1999/xlink" width="24" height="24" viewBox="0 0 24 24"><defs><style>.a,.c{fill:#fff;}.a{stroke:#707070;}.b{clip-path:url(#a);}</style><clipPath id="a"><rect class="a" width="24" height="24" transform="translate(244 630)"/></clipPath></defs><g class="b" transform="translate(-244 -630)"><g transform="translate(244 630)"><path class="c" d="M8.684,24c-3.572-.021-6.527-7.312-6.527-11.025,0-6.066,4.55-7.394,6.3-7.394a7.254,7.254,0,0,1,2.379.585,5.317,5.317,0,0,0,1.358.389,4.227,4.227,0,0,0,.974-.316,7.809,7.809,0,0,1,2.937-.71h.007a6.019,6.019,0,0,1,5.037,2.544l.367.552-.529.4a4.449,4.449,0,0,0-2.133,3.669,4.141,4.141,0,0,0,2.311,3.828c.331.2.674.4.674.854,0,.293-2.34,6.589-5.738,6.589a4.615,4.615,0,0,1-1.938-.47,3.929,3.929,0,0,0-1.725-.415,4.436,4.436,0,0,0-1.366.369A6.689,6.689,0,0,1,8.707,24Z"/><path class="c" d="M16.469,0C16.558,3.191,14.276,5.4,12,5.266,11.621,2.719,14.275,0,16.469,0Z"/></g></g></svg>