<svg xmlns="http://www.w3.org/2000/svg" xmlns:xlink="http://www.w3.org/1999/xlink" width="209.999" height="96" viewBox="0 0 209.999 96"><defs><style>.a{fill:#fff;}.b{filter:url(#a);}</style><filter id="a" x="0" y="0" width="209.999" height="96" filterUnits="userSpaceOnUse"><feOffset dy="8" input="SourceAlpha"/><feGaussianBlur stdDeviation="8" result="b"/><feFlood flood-color="#707070" flood-opacity="0.161"/><feComposite operator="in" in2="b"/><feComposite in="SourceGraphic"/></filter></defs><g transform="translate(24 16)"><path class="a" d="M170.523,51.931a4.6,4.6,0,0,1-4.6,4.6H15.29a4.6,4.6,0,0,1-4.609-4.6V15.282a4.609,4.609,0,0,1,4.609-4.6H165.919a4.6,4.6,0,0,1,4.6,4.6V51.931Z" transform="translate(-9.605 -9.604)"/><g class="b" transform="matrix(1, 0, 0, 1, -24, -16)"><path d="M156.322,48H5.678A5.679,5.679,0,0,1,0,42.333V5.673A5.682,5.682,0,0,1,5.678,0H156.321A5.684,5.684,0,0,1,162,5.673v36.66A5.677,5.677,0,0,1,156.323,48Z" transform="translate(24 16)"/></g><path class="a" d="M174.466,91.008a7.009,7.009,0,0,1,3.338-5.881,7.179,7.179,0,0,0-5.654-3.057c-2.378-.25-4.685,1.423-5.9,1.423-1.236,0-3.1-1.4-5.112-1.358A7.527,7.527,0,0,0,154.805,86c-2.74,4.743-.7,11.714,1.929,15.548,1.313,1.879,2.848,3.974,4.856,3.9,1.965-.08,2.7-1.251,5.07-1.251,2.349,0,3.039,1.251,5.087,1.2,2.109-.033,3.436-1.886,4.7-3.781A15.5,15.5,0,0,0,178.6,97.24,6.781,6.781,0,0,1,174.466,91.008ZM170.6,79.548a6.9,6.9,0,0,0,1.579-4.944,7.028,7.028,0,0,0-4.544,2.351,6.566,6.566,0,0,0-1.62,4.762A5.8,5.8,0,0,0,170.6,79.548Z" transform="translate(-138.037 -67.238)"/><g transform="translate(50.159 21.411)"><path class="a" d="M522.745,232.319H520l-1.5-4.727h-5.228l-1.433,4.727H509.16l5.181-16.091h3.2Zm-4.7-6.709-1.36-4.2q-.216-.644-.811-3.031h-.048q-.239,1.027-.764,3.031l-1.337,4.2Zm18,.765a6.57,6.57,0,0,1-1.608,4.678,4.715,4.715,0,0,1-3.577,1.528,3.58,3.58,0,0,1-3.313-1.646v6.088h-2.578V224.53q0-1.859-.1-3.814h2.267l.144,1.839h.048a4.586,4.586,0,0,1,7.341-.456A6.416,6.416,0,0,1,536.043,226.375Zm-2.626.094a4.783,4.783,0,0,0-.764-2.794,2.641,2.641,0,0,0-2.244-1.145,2.681,2.681,0,0,0-1.73.632,2.932,2.932,0,0,0-1.014,1.66,3.362,3.362,0,0,0-.12.785v1.936a3.1,3.1,0,0,0,.776,2.138,2.577,2.577,0,0,0,2.017.872,2.642,2.642,0,0,0,2.267-1.122A4.939,4.939,0,0,0,533.416,226.469Zm15.971-.094a6.571,6.571,0,0,1-1.608,4.678,4.718,4.718,0,0,1-3.578,1.528,3.58,3.58,0,0,1-3.313-1.646v6.088h-2.578V224.53q0-1.859-.1-3.814h2.267l.144,1.839h.048a4.587,4.587,0,0,1,7.342-.456A6.422,6.422,0,0,1,549.388,226.375Zm-2.627.094a4.783,4.783,0,0,0-.765-2.794,2.637,2.637,0,0,0-2.242-1.145,2.692,2.692,0,0,0-1.733.632,2.932,2.932,0,0,0-1.013,1.66,3.447,3.447,0,0,0-.121.785v1.936a3.115,3.115,0,0,0,.775,2.138,2.582,2.582,0,0,0,2.019.872,2.639,2.639,0,0,0,2.267-1.122A4.938,4.938,0,0,0,546.76,226.469Zm17.548,1.336a4.3,4.3,0,0,1-1.43,3.343,6.34,6.34,0,0,1-4.383,1.409,7.651,7.651,0,0,1-4.167-1l.6-2.149a7.172,7.172,0,0,0,3.724,1,3.514,3.514,0,0,0,2.267-.657,2.145,2.145,0,0,0,.814-1.753,2.247,2.247,0,0,0-.67-1.648,6.21,6.21,0,0,0-2.22-1.241q-4.226-1.576-4.227-4.609a4.069,4.069,0,0,1,1.492-3.247,5.9,5.9,0,0,1,3.951-1.266,7.809,7.809,0,0,1,3.653.764l-.647,2.1a6.387,6.387,0,0,0-3.092-.74,3.144,3.144,0,0,0-2.133.669,1.914,1.914,0,0,0-.647,1.458,1.971,1.971,0,0,0,.741,1.576,8.351,8.351,0,0,0,2.338,1.241,7.929,7.929,0,0,1,3.055,1.956A4.077,4.077,0,0,1,564.308,227.805Zm8.546-5.155h-2.842v5.633q0,2.149,1.5,2.147a4.533,4.533,0,0,0,1.145-.12l.071,1.958a5.838,5.838,0,0,1-2,.285,3.09,3.09,0,0,1-2.388-.932,4.572,4.572,0,0,1-.859-3.128v-5.849h-1.693v-1.935h1.693v-2.124l2.532-.764v2.889h2.842Zm12.794,3.771a6.365,6.365,0,0,1-1.528,4.393,5.448,5.448,0,0,1-4.249,1.767,5.193,5.193,0,0,1-4.071-1.693,6.172,6.172,0,0,1-1.516-4.273,6.313,6.313,0,0,1,1.563-4.416,5.42,5.42,0,0,1,4.215-1.719,5.3,5.3,0,0,1,4.105,1.7A6.091,6.091,0,0,1,585.648,226.422Zm-2.672.059a5.194,5.194,0,0,0-.69-2.738,2.552,2.552,0,0,0-2.317-1.382,2.589,2.589,0,0,0-2.364,1.382,5.282,5.282,0,0,0-.692,2.786,5.181,5.181,0,0,0,.692,2.739,2.644,2.644,0,0,0,4.659-.023A5.216,5.216,0,0,0,582.976,226.481Zm11.054-3.5a4.476,4.476,0,0,0-.812-.071,2.433,2.433,0,0,0-2.1,1.028,3.871,3.871,0,0,0-.643,2.291v6.088H587.9V224.37q0-2-.075-3.653h2.245l.094,2.22h.071a3.981,3.981,0,0,1,1.289-1.839,3.117,3.117,0,0,1,1.863-.622,4.127,4.127,0,0,1,.644.047Zm11.53,2.985a6.051,6.051,0,0,1-.094,1.169h-7.734a3.365,3.365,0,0,0,1.122,2.629,3.836,3.836,0,0,0,2.53.81,8.554,8.554,0,0,0,3.129-.548l.4,1.788a9.674,9.674,0,0,1-3.89.717,5.64,5.64,0,0,1-4.239-1.586,5.866,5.866,0,0,1-1.539-4.261,6.647,6.647,0,0,1,1.434-4.367,4.941,4.941,0,0,1,4.057-1.861,4.324,4.324,0,0,1,3.8,1.861A6.262,6.262,0,0,1,605.561,225.969ZM603.1,225.3a3.49,3.49,0,0,0-.5-1.982,2.251,2.251,0,0,0-2.053-1.076,2.444,2.444,0,0,0-2.052,1.051,3.85,3.85,0,0,0-.763,2Z" transform="translate(-509.16 -215.99)"/></g><g transform="translate(51.119 7.854)"><path class="a" d="M525.366,86.955h-1.351l-.739-2.323h-2.569l-.7,2.323h-1.314l2.546-7.909h1.572Zm-2.312-3.3-.669-2.065c-.07-.212-.2-.7-.4-1.49h-.024c-.082.34-.2.833-.376,1.49l-.657,2.065Zm8.679-2.4-2.16,5.7h-1.232l-2.089-5.7h1.361l.975,3.016c.164.5.3.985.41,1.442h.035c.094-.41.235-.891.41-1.442l.963-3.016Zm4.6,5.7-.094-.657H536.2a1.944,1.944,0,0,1-1.666.786,1.66,1.66,0,0,1-1.749-1.678c0-1.407,1.22-2.135,3.332-2.135v-.105c0-.751-.4-1.127-1.185-1.127a2.662,2.662,0,0,0-1.49.423l-.258-.833a3.651,3.651,0,0,1,1.96-.493c1.49,0,2.242.786,2.242,2.359v2.1a8.469,8.469,0,0,0,.082,1.361Zm-.177-2.84c-1.409,0-2.112.341-2.112,1.15a.808.808,0,0,0,.868.891,1.213,1.213,0,0,0,1.244-1.161Zm4.057-3.8a.758.758,0,1,1,.8-.763A.745.745,0,0,1,540.211,80.313Zm.658,6.642H539.6v-5.7h1.267Zm3.519,0H543.12V78.636h1.267Zm5.385,0-.094-.657h-.035a1.944,1.944,0,0,1-1.666.786,1.66,1.66,0,0,1-1.748-1.678c0-1.407,1.22-2.135,3.332-2.135v-.105c0-.751-.4-1.127-1.185-1.127a2.663,2.663,0,0,0-1.49.423l-.259-.834a3.651,3.651,0,0,1,1.96-.493c1.49,0,2.242.786,2.242,2.359v2.1a8.778,8.778,0,0,0,.081,1.361h-1.138Zm-.177-2.84c-1.409,0-2.112.341-2.112,1.15a.808.808,0,0,0,.868.891,1.213,1.213,0,0,0,1.244-1.161Zm6.367,2.97a1.936,1.936,0,0,1-1.793-1.01h-.025l-.073.88h-1.08c.035-.457.047-.975.047-1.537V78.636h1.268v3.451h.024a1.956,1.956,0,0,1,1.818-.95c1.374,0,2.336,1.174,2.336,2.886C558.486,85.793,557.418,87.084,555.963,87.084Zm-.258-4.953a1.458,1.458,0,0,0-1.4,1.514v1a1.4,1.4,0,0,0,1.375,1.432c.949,0,1.514-.774,1.514-2.006C557.2,82.919,556.609,82.132,555.706,82.132Zm5.921,4.823h-1.266V78.636h1.266Zm6.9-2.546h-3.8a1.636,1.636,0,0,0,1.8,1.689,4.277,4.277,0,0,0,1.537-.27l.2.88a4.754,4.754,0,0,1-1.912.352,2.647,2.647,0,0,1-2.84-2.874,2.785,2.785,0,0,1,2.7-3.063c1.455,0,2.371,1.08,2.371,2.711A2.391,2.391,0,0,1,568.524,84.408Zm-1.162-.9c0-.88-.446-1.5-1.256-1.5a1.5,1.5,0,0,0-1.386,1.5Zm8.843,3.579a2.714,2.714,0,0,1-2.746-2.933,2.777,2.777,0,0,1,2.841-3.016,2.693,2.693,0,0,1,2.746,2.922A2.8,2.8,0,0,1,576.205,87.084Zm.048-5.023c-.915,0-1.5.856-1.5,2.053,0,1.174.6,2.03,1.49,2.03s1.488-.915,1.488-2.054C577.731,82.93,577.145,82.061,576.254,82.061Zm9.6,4.893h-1.266V83.68c0-1.008-.387-1.514-1.15-1.514a1.317,1.317,0,0,0-1.268,1.4v3.392h-1.266V82.882c0-.5-.013-1.045-.047-1.631h1.115l.059.88h.035a2.046,2.046,0,0,1,1.806-1c1.2,0,1.982.915,1.982,2.4v3.416ZM594.15,82.2h-1.394v2.769q0,1.057.738,1.057a2.508,2.508,0,0,0,.563-.059l.035.962a2.822,2.822,0,0,1-.984.141c-1,0-1.595-.551-1.595-2V82.2h-.832v-.95h.832V80.208l1.243-.376v1.42h1.394Zm6.711,4.752h-1.268V83.7c0-1.021-.387-1.537-1.15-1.537a1.241,1.241,0,0,0-1.266,1.349v3.438h-1.268V78.636h1.268v3.425h.024a1.919,1.919,0,0,1,1.713-.927c1.208,0,1.947.938,1.947,2.429Zm6.475-2.546h-3.8a1.635,1.635,0,0,0,1.794,1.689,4.273,4.273,0,0,0,1.537-.27l.2.88a4.76,4.76,0,0,1-1.913.352,2.647,2.647,0,0,1-2.84-2.874,2.785,2.785,0,0,1,2.7-3.063c1.455,0,2.371,1.08,2.371,2.711A2.468,2.468,0,0,1,607.335,84.408Zm-1.162-.9c0-.88-.445-1.5-1.255-1.5a1.5,1.5,0,0,0-1.386,1.5Z" transform="translate(-518.688 -78.636)"/></g></g></svg>