<svg xmlns="http://www.w3.org/2000/svg" xmlns:xlink="http://www.w3.org/1999/xlink" width="20" height="20" viewBox="0 0 20 20"><defs><style>.a,.c{fill:#fff;}.a{stroke:#707070;}.b{clip-path:url(#a);}</style><clipPath id="a"><rect class="a" width="20" height="20"/></clipPath></defs><g class="b"><g transform="translate(0 5)"><path class="c" d="M19.375,7.25H.625A.625.625,0,0,1,.625,6h18.75a.625.625,0,1,1,0,1.25Z" transform="translate(0 -6)"/><path class="c" d="M.625,11.25h18.75a.625.625,0,1,1,0,1.25H.625a.625.625,0,0,1,0-1.25Z" transform="translate(0 -6.875)"/><path class="c" d="M8.125,16.5h12.5a.625.625,0,1,1,0,1.25H8.125a.625.625,0,0,1,0-1.25Z" transform="translate(-7.5 -7.75)"/></g></g></svg>