<svg xmlns="http://www.w3.org/2000/svg" xmlns:xlink="http://www.w3.org/1999/xlink" width="20" height="20" viewBox="0 0 20 20"><defs><style>.a{fill:#264740;}.b{clip-path:url(#a);}</style><clipPath id="a"><rect class="a" width="20" height="20" transform="translate(26 135)"/></clipPath></defs><g class="b" transform="translate(-26 -135)"><g transform="translate(25.377 134.408)"><path class="a" d="M18.442,1.246H16.573V3.115a.623.623,0,1,1-1.246,0V1.246H5.358V3.115a.623.623,0,1,1-1.246,0V1.246H2.243A1.716,1.716,0,0,0,.623,3.115V5.358H20.561V3.115a2.1,2.1,0,0,0-2.118-1.869ZM.623,6.667v11.4a1.691,1.691,0,0,0,1.682,1.869H18.5a2.1,2.1,0,0,0,2.118-1.869V6.667ZM6.168,17.134h-1.5a.491.491,0,0,1-.5-.5V15.078a.491.491,0,0,1,.5-.5H6.231a.491.491,0,0,1,.5.5v1.558a.545.545,0,0,1-.561.5Zm0-5.607h-1.5a.491.491,0,0,1-.5-.5V9.47a.491.491,0,0,1,.5-.5H6.231a.491.491,0,0,1,.5.5v1.558a.545.545,0,0,1-.561.5Zm4.984,5.607H9.6a.491.491,0,0,1-.5-.5V15.078a.491.491,0,0,1,.5-.5h1.558a.491.491,0,0,1,.5.5v1.558A.459.459,0,0,1,11.153,17.134Zm0-5.607H9.6a.491.491,0,0,1-.5-.5V9.47a.491.491,0,0,1,.5-.5h1.558a.491.491,0,0,1,.5.5v1.558A.459.459,0,0,1,11.153,11.526Zm4.984,5.607H14.579a.491.491,0,0,1-.5-.5V15.078a.491.491,0,0,1,.5-.5h1.558a.491.491,0,0,1,.5.5v1.558A.459.459,0,0,1,16.137,17.134Zm0-5.607H14.579a.491.491,0,0,1-.5-.5V9.47a.491.491,0,0,1,.5-.5h1.558a.491.491,0,0,1,.5.5v1.558A.459.459,0,0,1,16.137,11.526Z"/></g></g></svg>