<svg xmlns="http://www.w3.org/2000/svg" xmlns:xlink="http://www.w3.org/1999/xlink" width="20" height="20" viewBox="0 0 20 20"><defs><style>.a{fill:#264740;}.b{clip-path:url(#a);}</style><clipPath id="a"><rect class="a" width="20" height="20"/></clipPath></defs><g class="b"><g transform="translate(0 0.001)"><path class="a" d="M24.242,20l-2.9-2.029a2.239,2.239,0,0,0-3.121.555l-.674.966a24.969,24.969,0,0,1-3.592-3.017,24.937,24.937,0,0,1-3.017-3.592l.966-.674a2.238,2.238,0,0,0,.555-3.121l-2.028-2.9A2.244,2.244,0,0,0,8.6,5.213a2.1,2.1,0,0,0-.73.13,4.021,4.021,0,0,0-.755.371L6.71,6a3.039,3.039,0,0,0-.283.253,4.027,4.027,0,0,0-1.032,1.84c-.836,3.133,1.235,7.871,5.152,11.788,3.29,3.29,7.242,5.333,10.314,5.334h0a5.722,5.722,0,0,0,1.474-.182A4.027,4.027,0,0,0,24.176,24a3.048,3.048,0,0,0,.265-.3l.283-.4a4.037,4.037,0,0,0,.358-.735A2.206,2.206,0,0,0,24.242,20Z" transform="translate(-5.211 -5.213)"/></g></g></svg>