<svg xmlns="http://www.w3.org/2000/svg" xmlns:xlink="http://www.w3.org/1999/xlink" width="24" height="24" viewBox="0 0 24 24"><defs><style>.a{fill:#264740;}.b{clip-path:url(#a);}</style><clipPath id="a"><rect class="a" width="24" height="24" transform="translate(26 174)"/></clipPath></defs><g class="b" transform="translate(-26 -174)"><g transform="translate(26 175.626)"><path class="a" d="M3.711,2.913H2.3V6.075H0V21.791H6.016V6.075h-2.3Zm.381,15.363H1.923V16.87H4.092v1.406Zm0-2.812H1.923V14.057H4.092v1.406Zm0-2.812H1.923V11.245H4.092v1.406Zm0-4.219V9.838H1.923V8.432Z" transform="translate(0 -1.044)"/><path class="a" d="M18.7,6.075V2.913H17.292V6.075h-2.3V21.791H21V6.075Zm.381,12.2H16.91V16.87h2.169Zm0-2.812H16.91V14.057h2.169Zm0-2.812H16.91V11.245h2.169Zm0-2.813H16.91V8.432h2.169Z" transform="translate(2.997 -1.044)"/><path class="a" d="M9.414,16.887H10.82V19H9.414Z" transform="translate(1.883 1.751)"/><path class="a" d="M6.185,22.1H8.654V18.587h4.219V22.1h2.469V1.355L6.185,3.509ZM11.466,5.931h2.169V7.337H11.466Zm0,2.813h2.169V10.15H11.466Zm0,2.813h2.169v1.406H11.466Zm0,2.813h2.169v1.406H11.466ZM7.891,5.931H10.06V7.337H7.891Zm0,2.813H10.06V10.15H7.891Zm0,2.813H10.06v1.406H7.891Zm0,2.813H10.06v1.406H7.891Z" transform="translate(1.237 -1.355)"/></g></g></svg>