<svg xmlns="http://www.w3.org/2000/svg" xmlns:xlink="http://www.w3.org/1999/xlink" width="20" height="20" viewBox="0 0 20 20"><defs><style>.a{fill:#264740;}.b{clip-path:url(#a);}</style><clipPath id="a"><rect class="a" width="20" height="20" transform="translate(28 245)"/></clipPath></defs><g class="b" transform="translate(-28 -245)"><g transform="translate(28 247)"><path class="a" d="M12.5,11.67l9.46-5.55A3,3,0,0,0,19.5,4.8H5.5a3,3,0,0,0-2.48,1.31Z" transform="translate(-2.504 -4.8)"/><path class="a" d="M13.4,14.056a2.019,2.019,0,0,1-2,.01L2.4,8.8v9.67a3,3,0,0,0,3,3h14a3,3,0,0,0,3-3V8.8Z" transform="translate(-2.4 -5.466)"/></g></g></svg>