<svg xmlns="http://www.w3.org/2000/svg" xmlns:xlink="http://www.w3.org/1999/xlink" width="80" height="80" viewBox="0 0 80 80"><defs><style>.a{fill:#fff;stroke:#707070;}.b{clip-path:url(#a);}.c{fill:#ff637b;}.d{fill:#e63950;}.e{fill:#ffda2d;}.f{fill:#fdbf00;}.g{fill:#ff9100;}</style><clipPath id="a"><rect class="a" width="80" height="80" transform="translate(643 1381)"/></clipPath></defs><g class="b" transform="translate(-643 -1381)"><g transform="translate(643 1381)"><path class="c" d="M30.625,26.5a22.528,22.528,0,0,0-2.485.093H28C12.625,28.047,0,42.641,0,58.906,0,77.8,17.547,80,30.625,80,43.61,80,58.75,78.032,60.859,62.516,63.062,44.328,48.625,26.5,30.625,26.5Zm0,0"/><path class="d" d="M60.859,62.516C58.75,78.032,43.61,80,30.625,80V26.5C48.625,26.5,63.062,44.328,60.859,62.516Zm0,0"/><path class="c" d="M46.89,7.781,42.2,22H19.047L14.36,7.781a2.259,2.259,0,0,1,.281-2.109,2.444,2.444,0,0,1,1.922-.984h7.453a7,7,0,0,1,13.219,0h7.453a2.444,2.444,0,0,1,1.922.984,2.259,2.259,0,0,1,.281,2.109Zm0,0"/><path class="d" d="M46.89,7.781,42.2,22H30.625V0a7.055,7.055,0,0,1,6.609,4.687h7.453a2.444,2.444,0,0,1,1.922.984,2.259,2.259,0,0,1,.281,2.109Zm0,0"/><path class="e" d="M37.609,59.609a6.952,6.952,0,0,1-4.64,6.562v2.109a2.344,2.344,0,1,1-4.687,0V66.219a7.1,7.1,0,0,1-4.734-6.609,2.351,2.351,0,0,1,2.344-2.344,2.321,2.321,0,0,1,2.344,2.344,2.381,2.381,0,0,0,2.344,2.344h.047a2.34,2.34,0,0,0,2.3-2.344,2.311,2.311,0,0,0-2.3-2.344h-.047a7.083,7.083,0,0,1-7.031-7.031,7.006,7.006,0,0,1,4.734-6.609V40.156a2.344,2.344,0,1,1,4.687,0v3.469a7.013,7.013,0,0,1,4.64,6.609,2.35,2.35,0,0,1-2.344,2.344,2.381,2.381,0,0,1-2.344-2.344,2.311,2.311,0,0,0-2.3-2.344h-.047a2.351,2.351,0,0,0-2.344,2.344,2.381,2.381,0,0,0,2.344,2.344h.047A7.012,7.012,0,0,1,37.609,59.609Zm0,0"/><path class="e" d="M80,47.187a4.7,4.7,0,0,1-4.687,4.687L63.437,56.562,51.719,51.875a4.687,4.687,0,1,1,0-9.375H75.312A4.7,4.7,0,0,1,80,47.187Zm0,0"/><path class="f" d="M80,47.187a4.7,4.7,0,0,1-4.687,4.687L63.437,56.562V42.5H75.312A4.7,4.7,0,0,1,80,47.187Zm0,0"/><path class="f" d="M80,56.562a4.7,4.7,0,0,1-4.687,4.687L63.437,65.937,51.719,61.25a4.687,4.687,0,0,1,0-9.375H75.312A4.7,4.7,0,0,1,80,56.562Zm0,0"/><path class="g" d="M80,56.562a4.7,4.7,0,0,1-4.687,4.687L63.437,65.937V51.875H75.312A4.7,4.7,0,0,1,80,56.562Zm0,0"/><path class="e" d="M80,65.937a4.7,4.7,0,0,1-4.687,4.687L63.437,75.312,51.719,70.625a4.687,4.687,0,0,1,0-9.375H75.312A4.7,4.7,0,0,1,80,65.937Zm0,0"/><path class="f" d="M80,65.937a4.7,4.7,0,0,1-4.687,4.687L63.437,75.312V61.25H75.312A4.7,4.7,0,0,1,80,65.937Zm0,0"/><path class="f" d="M80,75.312A4.7,4.7,0,0,1,75.312,80H51.719a4.687,4.687,0,0,1,0-9.375H75.312A4.7,4.7,0,0,1,80,75.312Zm0,0"/><path class="g" d="M80,75.312A4.7,4.7,0,0,1,75.312,80H63.437V70.625H75.312A4.7,4.7,0,0,1,80,75.312Zm0,0"/><path class="e" d="M47.031,23.594a4.7,4.7,0,0,1-4.687,4.687H18.906a4.687,4.687,0,1,1,0-9.375H42.344A4.7,4.7,0,0,1,47.031,23.594Zm0,0"/><path class="f" d="M37.609,59.609a6.952,6.952,0,0,1-4.64,6.562v2.109a2.321,2.321,0,0,1-2.344,2.344V61.953a2.34,2.34,0,0,0,2.3-2.344,2.311,2.311,0,0,0-2.3-2.344V52.578A7.012,7.012,0,0,1,37.609,59.609Zm0,0"/><path class="f" d="M37.609,50.234a2.35,2.35,0,0,1-2.344,2.344,2.381,2.381,0,0,1-2.344-2.344,2.311,2.311,0,0,0-2.3-2.344V37.812a2.321,2.321,0,0,1,2.344,2.344v3.469A7.013,7.013,0,0,1,37.609,50.234Zm0,0"/><path class="f" d="M47.031,23.594a4.7,4.7,0,0,1-4.687,4.687H30.625V18.906H42.344A4.7,4.7,0,0,1,47.031,23.594Zm0,0"/></g></g></svg>