<svg xmlns="http://www.w3.org/2000/svg" xmlns:xlink="http://www.w3.org/1999/xlink" width="24" height="24" viewBox="0 0 24 24"><defs><style>.a,.c{fill:#fff;}.a{stroke:#707070;}.b{clip-path:url(#a);}</style><clipPath id="a"><rect class="a" width="24" height="24" transform="translate(269 675)"/></clipPath></defs><g class="b" transform="translate(-269 -675)"><g transform="translate(269 675)"><path class="c" d="M5.319,14.5l-.835,3.119-3.053.065A12.021,12.021,0,0,1,1.342,6.481h0l2.718.5,1.191,2.7A7.162,7.162,0,0,0,5.319,14.5Z"/><path class="c" d="M23.79,9.758a12,12,0,0,1-4.278,11.6h0l-3.424-.175L15.6,18.158a7.152,7.152,0,0,0,3.077-3.652H12.264V9.758H23.79Z"/><path class="c" d="M19.512,21.357h0A12,12,0,0,1,1.43,17.687L5.319,14.5A7.137,7.137,0,0,0,15.6,18.158Z"/><path class="c" d="M19.66,2.763,15.772,5.945A7.136,7.136,0,0,0,5.252,9.682l-3.909-3.2h0A12,12,0,0,1,19.66,2.763Z"/></g></g></svg>