<svg xmlns="http://www.w3.org/2000/svg" xmlns:xlink="http://www.w3.org/1999/xlink" width="210" height="96" viewBox="0 0 210 96"><defs><style>.a,.h{fill:#fff;}.b{fill:url(#e);}.c{fill:url(#f);}.d{fill:url(#g);}.e{fill:url(#h);}.f{opacity:0.2;}.g{opacity:0.12;}.h{opacity:0.25;}.i{filter:url(#c);}.j{filter:url(#a);}</style><filter id="a" x="0" y="0" width="210" height="96" filterUnits="userSpaceOnUse"><feOffset dy="8" input="SourceAlpha"/><feGaussianBlur stdDeviation="8" result="b"/><feFlood flood-color="#707070" flood-opacity="0.161"/><feComposite operator="in" in2="b"/><feComposite in="SourceGraphic"/></filter><filter id="c" x="0" y="0" width="210" height="96" filterUnits="userSpaceOnUse"><feOffset dy="8" input="SourceAlpha"/><feGaussianBlur stdDeviation="8" result="d"/><feFlood flood-color="#707070" flood-opacity="0.161"/><feComposite operator="in" in2="d"/><feComposite in="SourceGraphic"/></filter><linearGradient id="e" x1="0.908" y1="1.032" x2="-0.383" y2="0.36" gradientUnits="objectBoundingBox"><stop offset="0" stop-color="#00a0ff"/><stop offset="0.007" stop-color="#00a1ff"/><stop offset="0.26" stop-color="#00beff"/><stop offset="0.512" stop-color="#00d2ff"/><stop offset="0.76" stop-color="#00dfff"/><stop offset="1" stop-color="#00e3ff"/></linearGradient><linearGradient id="f" x1="1.077" y1="0.729" x2="-1.307" y2="0.729" gradientUnits="objectBoundingBox"><stop offset="0" stop-color="#ffe000"/><stop offset="0.409" stop-color="#ffbd00"/><stop offset="0.775" stop-color="orange"/><stop offset="1" stop-color="#ff9c00"/></linearGradient><linearGradient id="g" x1="0.864" y1="-0.023" x2="-0.499" y2="-1.789" gradientUnits="objectBoundingBox"><stop offset="0" stop-color="#ff3a44"/><stop offset="1" stop-color="#c31162"/></linearGradient><linearGradient id="h" x1="-0.186" y1="2.701" x2="0.423" y2="1.909" gradientUnits="objectBoundingBox"><stop offset="0" stop-color="#32a071"/><stop offset="0.069" stop-color="#2da771"/><stop offset="0.476" stop-color="#15cf74"/><stop offset="0.801" stop-color="#06e775"/><stop offset="1" stop-color="#00f076"/></linearGradient></defs><g transform="translate(24 16)"><g class="j" transform="matrix(1, 0, 0, 1, -24, -16)"><path d="M156,48H6a5.942,5.942,0,0,1-6-6V6A5.942,5.942,0,0,1,6,0H156a5.942,5.942,0,0,1,6,6V42A5.942,5.942,0,0,1,156,48Z" transform="translate(24 16)"/></g><g class="i" transform="matrix(1, 0, 0, 1, -24, -16)"><path d="M156,.96A5.07,5.07,0,0,1,161.04,6V42A5.07,5.07,0,0,1,156,47.04H6A5.07,5.07,0,0,1,.96,42V6A5.07,5.07,0,0,1,6,.96ZM156,0H6A6.017,6.017,0,0,0,0,6V42a5.942,5.942,0,0,0,6,6H156a5.942,5.942,0,0,0,6-6V6A6.017,6.017,0,0,0,156,0Z" transform="translate(24 16)"/></g><path class="a" d="M48.583,10.851a3.261,3.261,0,0,1-.838,2.394A3.712,3.712,0,0,1,41.4,10.611,3.679,3.679,0,0,1,45.111,6.9a3.188,3.188,0,0,1,1.437.359,2.607,2.607,0,0,1,1.078.838l-.6.6a2.233,2.233,0,0,0-1.916-.838A2.382,2.382,0,0,0,43.2,8.7a2.466,2.466,0,0,0-.838,2.035,2.466,2.466,0,0,0,.838,2.035,3.083,3.083,0,0,0,1.916.838,2.626,2.626,0,0,0,2.035-.838,1.983,1.983,0,0,0,.6-1.437H45.111v-.958h3.472Zm5.507-2.993H50.858v2.275h2.993v.838H50.858v2.275h3.233V14.2H49.9V7.02h4.19ZM58.042,14.2h-.958V7.858H55.049V7.02h5.028v.838H58.042Zm5.507,0V7.02h.958V14.2Zm5.028,0H67.62V7.858H65.584V7.02h4.909v.838H68.458V14.2Zm11.374-.958a3.712,3.712,0,0,1-6.345-2.634,3.712,3.712,0,1,1,7.423,0A3.52,3.52,0,0,1,79.951,13.245Zm-4.55-.6a2.825,2.825,0,0,0,1.916.838,2.382,2.382,0,0,0,1.916-.838,2.888,2.888,0,0,0,.838-2.035,2.466,2.466,0,0,0-.838-2.035,2.825,2.825,0,0,0-1.916-.838,2.382,2.382,0,0,0-1.916.838,2.888,2.888,0,0,0-.838,2.035A2.466,2.466,0,0,0,75.4,12.647ZM82.346,14.2V7.02h1.078L86.9,12.647V7.02h.958V14.2H86.9L83.184,8.337V14.2Z" transform="translate(8.326 1.383)"/><path class="a" d="M73.426,22.727a5.037,5.037,0,0,0-5.148,5.148,5.11,5.11,0,0,0,5.148,5.148,5.037,5.037,0,0,0,5.148-5.148A4.967,4.967,0,0,0,73.426,22.727Zm0,8.141a2.972,2.972,0,0,1-2.873-3.113,2.972,2.972,0,0,1,2.873-3.113A2.9,2.9,0,0,1,76.3,27.756,2.972,2.972,0,0,1,73.426,30.868ZM62.291,22.727a5.037,5.037,0,0,0-5.148,5.148,5.11,5.11,0,0,0,5.148,5.148,5.037,5.037,0,0,0,5.148-5.148A4.967,4.967,0,0,0,62.291,22.727Zm0,8.141a2.972,2.972,0,0,1-2.873-3.113,2.972,2.972,0,0,1,2.873-3.113,2.9,2.9,0,0,1,2.873,3.113A2.972,2.972,0,0,1,62.291,30.868ZM49,24.283v2.155H54.15a4.527,4.527,0,0,1-1.2,2.754A5.3,5.3,0,0,1,49,30.749,5.574,5.574,0,0,1,43.375,25,5.648,5.648,0,0,1,49,19.255a5.936,5.936,0,0,1,3.951,1.556l1.556-1.556A7.672,7.672,0,0,0,49.122,17.1,8.076,8.076,0,0,0,41.1,25a8.076,8.076,0,0,0,8.022,7.9,6.89,6.89,0,0,0,5.507-2.275A7.207,7.207,0,0,0,56.544,25.6a4.489,4.489,0,0,0-.12-1.317Zm54.355,1.676a4.652,4.652,0,0,0-4.31-3.233,4.822,4.822,0,0,0-4.789,5.148,5.01,5.01,0,0,0,5.028,5.148,4.911,4.911,0,0,0,4.19-2.275l-1.676-1.2a2.918,2.918,0,0,1-2.514,1.437,2.6,2.6,0,0,1-2.514-1.556l6.824-2.873Zm-6.944,1.676a2.908,2.908,0,0,1,2.634-2.993,2.118,2.118,0,0,1,1.916,1.078Zm-5.627,4.909h2.275V17.579H90.786ZM87.194,23.8a3.942,3.942,0,0,0-2.754-1.2,5.144,5.144,0,0,0-4.909,5.148,4.957,4.957,0,0,0,4.909,5.028,3.438,3.438,0,0,0,2.634-1.2h.12v.718c0,1.916-1.078,2.993-2.754,2.993a2.66,2.66,0,0,1-2.514-1.8l-1.916.838a4.939,4.939,0,0,0,4.55,2.993c2.634,0,4.789-1.556,4.789-5.268v-9.1H87.194ZM84.56,30.868a2.972,2.972,0,0,1-2.873-3.113,2.972,2.972,0,0,1,2.873-3.113,2.88,2.88,0,0,1,2.754,3.113A2.88,2.88,0,0,1,84.56,30.868Zm29.213-13.289h-5.388V32.544h2.275V26.917h3.113a4.675,4.675,0,1,0,0-9.339Zm.12,7.183H110.66V19.614h3.233a2.63,2.63,0,0,1,2.634,2.514,2.74,2.74,0,0,1-2.634,2.634Zm13.768-2.155a4.024,4.024,0,0,0-3.951,2.275l2.035.838a2.115,2.115,0,0,1,2.035-1.078,2.25,2.25,0,0,1,2.395,1.916v.12a4.749,4.749,0,0,0-2.275-.6c-2.155,0-4.31,1.2-4.31,3.352a3.507,3.507,0,0,0,3.711,3.352,3.369,3.369,0,0,0,2.873-1.437h.12v1.2h2.155V26.8a4.531,4.531,0,0,0-4.789-4.19Zm-.239,8.261c-.718,0-1.8-.359-1.8-1.317,0-1.2,1.317-1.556,2.395-1.556a4.63,4.63,0,0,1,2.035.479A2.788,2.788,0,0,1,127.422,30.868Zm12.571-7.9-2.514,6.465h-.12l-2.634-6.465H132.33l3.951,9.1-2.275,5.028h2.275l6.106-14.128Zm-20.114,9.578h2.275V17.579h-2.275Z" transform="translate(8.478 3.483)"/><path class="b" d="M10.479,7.5A2.355,2.355,0,0,0,10,9.182V35.739a2.382,2.382,0,0,0,.6,1.682l.12.12,14.846-14.9V22.4Z" transform="translate(1.972 1.479)"/><path class="c" d="M27.809,25.977,22.9,21.068v-.359L27.809,15.8l.12.12,5.867,3.352c1.676.958,1.676,2.514,0,3.472Z" transform="translate(4.585 3.172)"/><path class="d" d="M30.394,25.028,25.366,20,10.4,34.966c.6.6,1.437.6,2.514.12Z" transform="translate(2.051 4.026)"/><path class="e" d="M30.394,17.5,12.914,7.565a1.941,1.941,0,0,0-2.514.12L25.366,22.53Z" transform="translate(2.051 1.444)"/><path class="f" d="M30.274,24.1l-17.36,9.817a1.958,1.958,0,0,1-2.394,0l-.12.12.12.12a1.958,1.958,0,0,0,2.394,0Z" transform="translate(2.051 4.839)"/><path class="g" d="M10.479,34.726A2.341,2.341,0,0,1,10,33.05v.12a2.368,2.368,0,0,0,.6,1.676v-.12Zm25.861-13.17-5.986,3.352.12.12,5.867-3.352A1.99,1.99,0,0,0,37.537,20C37.537,20.6,37.058,21.078,36.339,21.556Z" transform="translate(1.972 4.025)"/><path class="h" d="M12.993,7.689,36.339,20.979c.718.479,1.2.958,1.2,1.556a1.99,1.99,0,0,0-1.2-1.676L12.993,7.57C11.317,6.612,10,7.33,10,9.246v.12C10,7.57,11.317,6.732,12.993,7.689Z" transform="translate(1.972 1.439)"/></g></svg>