<svg xmlns="http://www.w3.org/2000/svg" xmlns:xlink="http://www.w3.org/1999/xlink" width="20" height="20" viewBox="0 0 20 20"><defs><style>.a{fill:#fff;}.b{clip-path:url(#a);}</style><clipPath id="a"><rect class="a" width="20" height="20" transform="translate(26 275)"/></clipPath></defs><g class="b" transform="translate(-26 -275)"><path class="a" d="M13.978,12.745a.823.823,0,0,1-.627-.789v-.839l.922-.918a2.469,2.469,0,0,0,.747-1.771V5.173A5.272,5.272,0,0,0,13.407,1.4a4.983,4.983,0,0,0-6.936.057A4.923,4.923,0,0,0,5.006,4.974V8.428a2.461,2.461,0,0,0,.737,1.757l.932.931v.839a.823.823,0,0,1-.627.789,5.808,5.808,0,0,0-4.379,5.619v.828a.834.834,0,0,0,.834.834H17.523a.834.834,0,0,0,.834-.834v-.828a5.808,5.808,0,0,0-4.379-5.619Z" transform="translate(25.987 274.974)"/></g></svg>