<svg xmlns="http://www.w3.org/2000/svg" xmlns:xlink="http://www.w3.org/1999/xlink" width="20" height="20" viewBox="0 0 20 20"><defs><style>.a,.c{fill:#264740;}.a{stroke:#707070;}.b{clip-path:url(#a);}</style><clipPath id="a"><rect class="a" width="20" height="20" transform="translate(1090 1137)"/></clipPath></defs><g class="b" transform="translate(-1090 -1137)"><g transform="translate(1090 1137)"><path class="c" d="M10.109,8.352A1.758,1.758,0,1,1,8.352,6.594,1.758,1.758,0,0,1,10.109,8.352Zm0,0" transform="translate(1.648 1.648)"/><path class="c" d="M12.031,3.75H6.094A2.346,2.346,0,0,0,3.75,6.094v5.938a2.346,2.346,0,0,0,2.344,2.344h5.938a2.346,2.346,0,0,0,2.344-2.344V6.094A2.346,2.346,0,0,0,12.031,3.75ZM9.063,11.992a2.93,2.93,0,1,1,2.93-2.93A2.933,2.933,0,0,1,9.063,11.992Zm3.359-5.7a.586.586,0,1,1,.586-.586A.586.586,0,0,1,12.422,6.289Zm0,0" transform="translate(0.938 0.938)"/><path class="c" d="M14.727,0H5.273A5.279,5.279,0,0,0,0,5.273v9.453A5.279,5.279,0,0,0,5.273,20h9.453A5.279,5.279,0,0,0,20,14.727V5.273A5.279,5.279,0,0,0,14.727,0Zm1.758,12.969a3.52,3.52,0,0,1-3.516,3.516H7.031a3.52,3.52,0,0,1-3.516-3.516V7.031A3.52,3.52,0,0,1,7.031,3.516h5.938a3.52,3.52,0,0,1,3.516,3.516Zm0,0"/></g></g></svg>