<svg xmlns="http://www.w3.org/2000/svg" xmlns:xlink="http://www.w3.org/1999/xlink" width="24" height="24" viewBox="0 0 24 24"><defs><style>.a{fill:#264740;}.b{clip-path:url(#a);}</style><clipPath id="a"><rect class="a" width="24" height="24" transform="translate(28 342)"/></clipPath></defs><g class="b" transform="translate(-28 -342)"><g transform="translate(28 342)"><path class="a" d="M16.269,0A7.712,7.712,0,0,0,8.931,10.094C6.081,12.947,0,19.028,0,19.028V24H4.972l1.541-1.541.13-1.8,1.8-.13,1.52-1.52.13-1.8,1.8-.13,2.017-2.017a7.87,7.87,0,0,0,2.439.4A7.731,7.731,0,0,0,16.269,0ZM19.252,9.72a3.516,3.516,0,1,1,0-4.972,3.5,3.5,0,0,1,0,4.972Z" transform="translate(0 0)"/></g></g></svg>