<svg xmlns="http://www.w3.org/2000/svg" width="50" height="40" viewBox="0 0 50 40"><defs><style>.a{fill:#fff;}</style></defs><g transform="translate(-622.104 -259.302)"><path class="a" d="M474.647,225.825c-2.075-.1-5.671-.12-5.671-.12s-3.6.024-5.671.12-4.778.142-4.826,1.452c0,0,.057-.013.193-.036l-.173,4.646a.452.452,0,0,0,.145.348.465.465,0,0,0,.361.121c1.985-.193,7.311-.333,8.88-.377a.447.447,0,0,0,.44-.444V226.8h1.3v4.734a.447.447,0,0,0,.441.444c1.567.04,6.894.184,8.88.377a.465.465,0,0,0,.361-.121.452.452,0,0,0,.145-.348l-.173-4.646c.135.022.192.036.192.036C479.426,225.967,476.723,225.92,474.647,225.825Zm9.448,20.015h-4.808l-.748,1.54.348-2.176h5.181s.418.064.515-.286-.1-3.238-.128-3.81a1.185,1.185,0,0,0-.612-1.048,9.349,9.349,0,0,0-2.137-.371l-.179-5.266.45-.191c.6.186,1.268.411,1.414.49a.369.369,0,0,0,.178.047.341.341,0,0,0,.2-.066c.121-.09.216-.265.138-.851h.144a.387.387,0,0,0,.285-.118.377.377,0,0,0,.1-.287l-.225-4.382a.436.436,0,0,0-.432-.406h-.1a1.57,1.57,0,0,0-1.4-.96,1.679,1.679,0,0,0-.266.021c-.283.044-.517.089-.71.132l-.127-3.764a1.964,1.964,0,0,0-.724-.174l-.192-5.289s-.306-.444-.6-.444-.579.413-.482.888c.081.4.225,3.78.269,4.884a6.367,6.367,0,0,0-.687.131l.092,1.717a1.638,1.638,0,0,1,1.2,1.453l.025.744-.238-.054.247,5.163.016.85a3.086,3.086,0,0,1,.356,1.268c.051.759.2,2.756.225,3.737v.636c-.988-.076-1.811-.111-1.811-.111v-4.253l.562,4.022.667-.275c-.027-.981-.134-2.95-.225-3.683a2.516,2.516,0,0,0-2.249-2.35c-1.606-.317-8.661-.317-8.661-.317s-7.045,0-8.661.317a2.505,2.505,0,0,0-2.25,2.35c-.09.734-.2,2.7-.225,3.683l.666.275.562-4.022v4.255s-.823.037-1.811.111v-.636c.027-.98.178-2.977.225-3.737a3.084,3.084,0,0,1,.357-1.268l.016-.85.249-5.163-.24.054.039-.737a1.639,1.639,0,0,1,1.2-1.453l.092-1.717a6.378,6.378,0,0,0-.686-.131c.044-1.11.188-4.49.269-4.884.1-.477-.194-.888-.484-.888s-.6.444-.6.444l-.192,5.289a1.959,1.959,0,0,0-.724.174l-.124,3.755c-.195-.043-.427-.088-.712-.132a1.673,1.673,0,0,0-.264-.021,1.567,1.567,0,0,0-1.4.96h-.1a.435.435,0,0,0-.431.406l-.228,4.382a.378.378,0,0,0,.105.286.389.389,0,0,0,.284.119h.145c-.078.586.017.762.138.851a.341.341,0,0,0,.2.066.366.366,0,0,0,.178-.047c.147-.079.817-.3,1.415-.49l.45.191-.18,5.266a9.336,9.336,0,0,0-2.131.371,1.176,1.176,0,0,0-.612,1.048c-.031.572-.225,3.461-.128,3.81s.514.286.514.286h5.178l.349,2.176-.749-1.54h-4.812a2.149,2.149,0,0,0-1.674,2.19h33.593a2.148,2.148,0,0,0-1.67-2.19Zm-1.987-17.558a1.141,1.141,0,0,1,.171-.013.892.892,0,0,1,.732.389.388.388,0,0,0-.284.12.378.378,0,0,0-.1.287l.225,4.382a.435.435,0,0,0,.432.405h.04c.011.084.021.163.028.234-.462-.172-1.21-.4-1.3-.431l-.1-.03-.44.222-.184-5.407C481.533,228.385,481.789,228.333,482.108,228.283Zm-3.569,13.543a.624.624,0,0,1,.628-.619h3.855a.617.617,0,0,1,.622.593l.054,1.534a.608.608,0,0,1-.174.448.625.625,0,0,1-.448.187h-3.909a.631.631,0,0,1-.444-.181.614.614,0,0,1-.184-.438Zm-16.582-7.356H476a1.024,1.024,0,0,1,1.029,1.017h-16.1A1.024,1.024,0,0,1,461.956,234.471Zm0,2H476a1.024,1.024,0,0,1,1.029,1.017h-16.1a1.024,1.024,0,0,1,1.03-1.009Zm0,2H476a1.023,1.023,0,0,1,1.029,1.016h-16.1a1.023,1.023,0,0,1,1.03-1.008Zm0,2H476a1.023,1.023,0,0,1,1.029,1.016h-16.1a1.023,1.023,0,0,1,1.03-1.008Zm14.893,3.589v.381h-3.41v-.381Zm-4.183,0v.381h-3.41v-.381Zm-3.969,0v.381h-3.41v-.381Zm-4.183,0v.381H461.1v-.381ZM456,233.619l-.1.03c-.091.029-.84.259-1.3.431.007-.071.016-.15.028-.234h.041a.435.435,0,0,0,.432-.405l.231-4.382a.379.379,0,0,0-.1-.287.389.389,0,0,0-.284-.12.9.9,0,0,1,.732-.389,1.121,1.121,0,0,1,.171.013c.319.05.575.1.787.153l-.184,5.407Zm3.411,9.722a.614.614,0,0,1-.184.438.631.631,0,0,1-.444.181h-3.91a.622.622,0,0,1-.448-.187.606.606,0,0,1-.173-.448l.053-1.534a.618.618,0,0,1,.622-.593h3.856a.624.624,0,0,1,.628.619Zm17.257,2.937H461.28a1.073,1.073,0,0,1-1.125-1.016H477.8a1.081,1.081,0,0,1-1.133,1.021Zm2.517,2.349-.216,3.128h-.434v-3.123h-5.822v2.533h-7.481v-2.533h-5.822v3.128h-.435l-.216-3.128h-6.39a4.809,4.809,0,0,0,.126,2.876v4.616a1.151,1.151,0,0,0,1.159,1.143h2.868a1.151,1.151,0,0,0,1.159-1.143V253.14h22.583v2.986a1.151,1.151,0,0,0,1.159,1.143H484.3a1.151,1.151,0,0,0,1.157-1.143V251.51a4.8,4.8,0,0,0,.127-2.876Zm-19.4-24.978-.106,1.959c.057-.016.112-.029.173-.042a19.185,19.185,0,0,1,3.093-.3l.325-.014c2.063-.094,5.659-.119,5.695-.119h.008c.036,0,3.631.024,5.694.119l.326.014a19.183,19.183,0,0,1,3.092.3c.06.013.113.027.173.042l-.1-1.959.456-.119c.007,0,.093-.023.235-.053-.057-1.383-.112-2.522-.158-3.284H459.259c-.045.762-.1,1.9-.159,3.284.142.03.225.052.236.053Z" transform="translate(178.128 41.122)"/><path class="a" d="M404.12,554.69c9.346,0,17.986.392,25,1.057-4.846-1.709-14.224-2.867-25-2.867s-20.154,1.157-25,2.866C386.136,555.081,394.775,554.69,404.12,554.69Z" transform="translate(242.984 -256.445)"/></g></svg>