<svg xmlns="http://www.w3.org/2000/svg" xmlns:xlink="http://www.w3.org/1999/xlink" width="24" height="24" viewBox="0 0 24 24"><defs><style>.a{fill:#264740;}.b{clip-path:url(#a);}</style><clipPath id="a"><rect class="a" width="24" height="24" transform="translate(28 245)"/></clipPath></defs><g class="b" transform="translate(-28 -245)"><g transform="translate(28 247.4)"><path class="a" d="M14.4,13.044l11.352-6.66A3.6,3.6,0,0,0,22.8,4.8H6A3.6,3.6,0,0,0,3.024,6.372Z" transform="translate(-2.4 -4.8)"/><path class="a" d="M15.6,15.108a2.423,2.423,0,0,1-2.4.012L2.4,8.8V20.4A3.6,3.6,0,0,0,6,24H22.8a3.6,3.6,0,0,0,3.6-3.6V8.8Z" transform="translate(-2.4 -4.8)"/></g></g></svg>