<svg xmlns="http://www.w3.org/2000/svg" xmlns:xlink="http://www.w3.org/1999/xlink" width="32" height="32" viewBox="0 0 32 32"><defs><style>.a{fill:#fff;}.b{clip-path:url(#a);}.c{fill:url(#b);}.d{fill:url(#c);}.e,.f{opacity:0.4;}.e{fill:url(#d);}.f{fill:url(#e);}.g{fill:#565f64;}.h{fill:url(#f);}.i{fill:rgba(164,170,174,0.6);}.j{fill:#333e46;}.k{fill:url(#g);}.l{fill:url(#h);}.m{opacity:0.8;fill:url(#i);}.n{fill:url(#j);}.o{fill:url(#k);}.p{fill:url(#l);}.q{fill:url(#m);}.r{fill:url(#n);}.s{fill:url(#o);}.t{fill:#fbfbfb;}.u{fill:#333f47;}</style><clipPath id="a"><rect class="a" width="32" height="32" transform="translate(7370 1270)"/></clipPath><linearGradient id="b" x1="0.117" y1="0.853" x2="0.883" y2="0.211" gradientUnits="objectBoundingBox"><stop offset="0" stop-color="#fff"/><stop offset="0.1" stop-color="#e7e8e6"/><stop offset="0.1" stop-color="#cdd0d0"/><stop offset="0.2" stop-color="#b5bbbd"/><stop offset="0.2" stop-color="#a5acaf"/><stop offset="0.3" stop-color="#9ba3a7"/><stop offset="0.3" stop-color="#98a0a4"/><stop offset="0.4" stop-color="#828a8f"/><stop offset="0.5" stop-color="#667075"/><stop offset="0.6" stop-color="#535c63"/><stop offset="0.7" stop-color="#475158"/><stop offset="0.8" stop-color="#434d54"/><stop offset="1" stop-color="#475157"/></linearGradient><linearGradient id="c" x1="0.117" y1="0.856" x2="0.882" y2="0.213" gradientUnits="objectBoundingBox"><stop offset="0" stop-color="#0b1f2a"/><stop offset="0.2" stop-color="#333f47"/><stop offset="0.5" stop-color="#777f84"/><stop offset="0.5" stop-color="#81898d"/><stop offset="0.7" stop-color="#b3b8b8"/><stop offset="0.8" stop-color="#d2d5d3"/><stop offset="0.8" stop-color="#dee0dd"/><stop offset="1" stop-color="#fbfbfb"/></linearGradient><linearGradient id="d" x1="25.762" y1="-2.515" x2="26.104" y2="-3.455" gradientUnits="objectBoundingBox"><stop offset="0" stop-color="#e1e3e1"/><stop offset="0.1" stop-color="#c1c5c4"/><stop offset="0.3" stop-color="#9ba1a2"/><stop offset="0.5" stop-color="#7d8487"/><stop offset="0.7" stop-color="#687074" stop-opacity="0"/><stop offset="0.8" stop-color="#5b6469" stop-opacity="0"/><stop offset="1" stop-color="#576065" stop-opacity="0"/></linearGradient><linearGradient id="e" x1="0.25" y1="0.969" x2="0.75" y2="0.103" xlink:href="#d"/><linearGradient id="f" x1="0.504" y1="-0.43" x2="0.434" y2="-0.63" gradientUnits="objectBoundingBox"><stop offset="0" stop-color="#27343c"/><stop offset="1" stop-color="#00111e" stop-opacity="0"/></linearGradient><linearGradient id="g" x1="1.71" y1="1.199" x2="1.043" y2="1.365" gradientUnits="objectBoundingBox"><stop offset="0.1" stop-color="#02131f"/><stop offset="0.9" stop-color="#02131f" stop-opacity="0"/></linearGradient><linearGradient id="h" x1="1.003" y1="-0.212" x2="0.833" y2="-0.297" gradientUnits="objectBoundingBox"><stop offset="0.2" stop-color="#02131f" stop-opacity="0.8"/><stop offset="0.9" stop-color="#02131f" stop-opacity="0"/></linearGradient><linearGradient id="i" x1="0.531" y1="-0.649" x2="0.506" y2="-0.54" gradientUnits="objectBoundingBox"><stop offset="0" stop-color="#02131f"/><stop offset="0.1" stop-color="#02131f"/><stop offset="1" stop-color="#02131f" stop-opacity="0"/></linearGradient><linearGradient id="j" x1="0.788" y1="1.62" x2="0.064" y2="1.606" gradientUnits="objectBoundingBox"><stop offset="0.3" stop-color="#02131f"/><stop offset="0.8" stop-color="#02131f" stop-opacity="0"/></linearGradient><linearGradient id="k" x1="0.81" y1="1.622" x2="0.321" y2="1.611" gradientUnits="objectBoundingBox"><stop offset="0.4" stop-color="#27343c"/><stop offset="1" stop-color="#3b474e" stop-opacity="0"/></linearGradient><linearGradient id="l" x1="-0.048" y1="0.327" x2="1.204" y2="-0.073" gradientUnits="objectBoundingBox"><stop offset="0" stop-color="#24303a" stop-opacity="0"/><stop offset="0" stop-color="#25323b" stop-opacity="0"/><stop offset="0.1" stop-color="#27343c"/></linearGradient><linearGradient id="m" x1="0.5" y1="-0.835" x2="0.5" y2="0.177" gradientUnits="objectBoundingBox"><stop offset="0.3" stop-color="#a5abaf"/><stop offset="1" stop-color="#a5abaf" stop-opacity="0"/></linearGradient><linearGradient id="n" x1="0.5" y1="1.007" x2="0.5" y2="0.007" gradientUnits="objectBoundingBox"><stop offset="0" stop-color="#dee0dd"/><stop offset="0" stop-color="#c5c9c7"/><stop offset="0" stop-color="#9ea4a5"/><stop offset="0" stop-color="#82898c"/><stop offset="0" stop-color="#71797d"/><stop offset="0" stop-color="#6b7378"/><stop offset="0.2" stop-color="#333f47"/><stop offset="0.5" stop-color="#27343c"/><stop offset="0.8" stop-color="#333f47"/><stop offset="1" stop-color="#434d54"/></linearGradient><linearGradient id="o" x1="0.845" y1="1.34" x2="0.333" y2="0.856" gradientUnits="objectBoundingBox"><stop offset="0.7" stop-color="#27343c"/><stop offset="0.7" stop-color="#2b373f"/><stop offset="0.7" stop-color="#36424a"/><stop offset="0.7" stop-color="#49545b"/><stop offset="0.8" stop-color="#646d73" stop-opacity="0"/><stop offset="0.8" stop-color="#868d92" stop-opacity="0"/><stop offset="0.8" stop-color="#b0b5b8" stop-opacity="0"/><stop offset="0.8" stop-color="#e1e3e4" stop-opacity="0"/><stop offset="0.8" stop-color="#fff" stop-opacity="0"/></linearGradient></defs><g class="b" transform="translate(-7370 -1270)"><g transform="translate(7370 1270)"><path class="c" d="M31.65,16A15.65,15.65,0,1,1,16,.35,15.641,15.641,0,0,1,31.65,16ZM16,1.3A14.7,14.7,0,1,0,30.7,16,14.66,14.66,0,0,0,16,1.3Z"/><path class="d" d="M16,1.3A14.7,14.7,0,1,0,30.7,16,14.66,14.66,0,0,0,16,1.3Zm0,28.45A13.75,13.75,0,1,1,29.75,16,13.742,13.742,0,0,1,16,29.75Z"/><path class="e" d="M16,31.65A15.65,15.65,0,1,0,.35,16,15.641,15.641,0,0,0,16,31.65ZM16,0A16,16,0,1,1,0,16,16.047,16.047,0,0,1,16,0Z"/><path class="a" d="M1.1,16.05A14.9,14.9,0,1,1,16,30.9,14.948,14.948,0,0,1,1.1,16.05ZM5.75,5.75A14.486,14.486,0,0,0,5.7,26.3,14.724,14.724,0,0,0,16,30.55a14.51,14.51,0,0,0,14.5-14.5,14.724,14.724,0,0,0-4.25-10.3,14.367,14.367,0,0,0-20.5,0Z"/><path class="f" d="M16,29.8A13.789,13.789,0,0,1,6.25,6.25a13.789,13.789,0,1,1,19.5,19.5A13.691,13.691,0,0,1,16,29.8Zm0-.4A13.35,13.35,0,1,0,6.55,6.6,13,13,0,0,0,2.6,16,13.4,13.4,0,0,0,16,29.4Z"/><path class="a" d="M28.15,22.5c-.25-.2-9.9-7.85-9.9-7.85L16,1.8a.854.854,0,0,0-.45.4l-1.6,12.5L4,22.35s-.2.25-.3.4a.975.975,0,0,0-.05.4l12.3-5.05,12.3,5.05a.713.713,0,0,0-.1-.65Z"/><path class="g" d="M16.1,16.4,16,18.7l11.3,4.55a.9.9,0,0,0,1-.1l-12.05-6.8A.1.1,0,0,0,16.1,16.4Z"/><path class="h" d="M16.1,16.4a11.943,11.943,0,0,0,1.4,1.95,11.549,11.549,0,0,0,2.45,1.95l7.35,2.95a.9.9,0,0,0,1-.1l-12.05-6.8A.1.1,0,0,0,16.1,16.4Z"/><path class="i" d="M28.25,22.7c0-.05-.05-.1-.1-.2l-10.3-7.55-1.4.9s.1.05.15,0a1.251,1.251,0,0,1,.75,0c.25.1,10.9,6.9,10.9,6.85h0Z"/><path class="j" d="M27.9,22.25l-9.6-7.6-.45.3,10.3,7.6a1.326,1.326,0,0,0-.25-.3Z"/><path class="g" d="M16.25,15.65l-.05.05s0,.1.1.05c.05-.05,1.5-.8,2-1.1l-1.75-12a.871.871,0,0,0-.6-.8l.2,13.9.1-.1Z"/><path class="i" d="M15.4,2.65V3.3L14.3,14.35a.455.455,0,0,0,.2.4l.65.5.45-12.2.05-.95a.813.813,0,0,0-.25.55Zm-.6,12.8-.6-.5L4.05,22.3s-.3.2-.35.4l.35-.2L14.7,15.8c.2-.1.25-.2.1-.35Z"/><path class="g" d="M15.85,16.4c0-.05-.05-.1-.1-.05L3.65,23.2a1,1,0,0,0,1,.1l11.3-4.55Z"/><path class="k" d="M16.2,15.7l.05-.05-.05.05a.049.049,0,0,0,.05.05h.05c.05-.05,1.5-.8,2-1.1l-.2-1.45L16.55,2.65a.611.611,0,0,0-.15-.45s.75,10.1.75,11.2a3.263,3.263,0,0,1-.95,2.3Z"/><path class="l" d="M15.85,16.4c0-.05-.05-.1-.1-.05L3.65,23.2a1,1,0,0,0,1,.1l11.3-4.55Z"/><path class="m" d="M4.65,23.25l11.3-4.55-.1-2.2a2.864,2.864,0,0,1-1.5,1.75c-.7.4-7.4,3.7-9.8,4.85a3.157,3.157,0,0,1-.45.2.548.548,0,0,0,.55-.05Z"/><path class="n" d="M16.25,15.65l-.05.05s0,.1.1.05c.05-.05,1.5-.8,2-1.1l-1.75-12a.871.871,0,0,0-.6-.8l.2,13.9.1-.1Z"/><path class="o" d="M16.25,15.65l-.05.05s0,.1.1.05c.05-.05,1.5-.8,2-1.1l-1.75-12a.871.871,0,0,0-.6-.8l.2,13.9.1-.1Z"/><path class="p" d="M2.55,22.2C2.2,21.4.2,17.5,2.4,10H1.55a24.742,24.742,0,0,0-1,3.75s-.1.5-.15,1.05A11.374,11.374,0,0,0,.35,16a13.091,13.091,0,0,0,.75,4.75A14.6,14.6,0,0,0,5.2,27.2a14.342,14.342,0,0,0,6.3,2.95c-.35-.05-6.35-2.6-8.95-7.95Z"/><path class="q" d="M16.2,16.3h-.45c.05,0,.1,0,.1.05l.1,2.3H16l.1-2.3c0-.05.05-.1.1-.05Z"/><path class="r" d="M21,1.15c5.25,2,10.2,7.5,10.2,14.45A15.172,15.172,0,0,1,16,30.85v.8a15.662,15.662,0,0,0,5-30.5Z"/><path class="a" d="M16.15.35h0Z"/><path class="s" d="M29.4,10.1A14.23,14.23,0,0,0,17.55,1.55H17.5c6.05,1.1,9.9,5.05,11.25,9.2v.05a15.7,15.7,0,0,1,.95,5.15,13.672,13.672,0,0,1-1.1,5.5c-.05.25-.1.55-.15.55h.8A13.727,13.727,0,0,0,29.4,10.1Z"/><path class="t" d="M1.1,16.05A14.9,14.9,0,1,1,16,30.9,14.948,14.948,0,0,1,1.1,16.05ZM5.75,5.75A14.486,14.486,0,0,0,5.7,26.3,14.724,14.724,0,0,0,16,30.55a14.51,14.51,0,0,0,14.5-14.5,14.724,14.724,0,0,0-4.25-10.3,14.367,14.367,0,0,0-20.5,0Z"/><path class="u" d="M3.95,22.4l10.2-7.35a10.345,10.345,0,0,0,1.55.7c.1.05.1-.05.1-.05l-1.25-1.05a.455.455,0,0,1-.2-.4L15.55,2.2c-.05.05-.05.15-.1.2a.451.451,0,0,0-.05.25L13.65,14.7l-9.6,7.55c-.05.05-.1.1-.1.15Z"/></g></g></svg>