<svg xmlns="http://www.w3.org/2000/svg" xmlns:xlink="http://www.w3.org/1999/xlink" width="24" height="24" viewBox="0 0 24 24"><defs><style>.a{fill:#264740;}.b{clip-path:url(#a);}</style><clipPath id="a"><rect class="a" width="24" height="24" transform="translate(26 275)"/></clipPath></defs><g class="b" transform="translate(-26 -275)"><path class="a" d="M16.44,15.289a.987.987,0,0,1-.753-.947V13.334l1.106-1.1a2.963,2.963,0,0,0,.9-2.125V6.2a6.326,6.326,0,0,0-1.934-4.525,5.98,5.98,0,0,0-8.324.068A5.908,5.908,0,0,0,5.674,5.964v4.144a2.953,2.953,0,0,0,.884,2.109l1.118,1.117v1.007a.987.987,0,0,1-.753.947,6.97,6.97,0,0,0-5.255,6.743v.993a1,1,0,0,0,1,1H20.693a1,1,0,0,0,1-1v-.993a6.97,6.97,0,0,0-5.255-6.743Z" transform="translate(26.319 274.974)"/></g></svg>