<svg xmlns="http://www.w3.org/2000/svg" xmlns:xlink="http://www.w3.org/1999/xlink" width="24" height="24" viewBox="0 0 24 24"><defs><style>.a{fill:#fff;}.b{clip-path:url(#a);}</style><clipPath id="a"><rect class="a" width="24" height="24" transform="translate(28 599)"/></clipPath></defs><g class="b" transform="translate(-28 -599)"><g transform="translate(26.76 597.759)"><path class="a" d="M24,12h0a1.241,1.241,0,0,0-1.24,1.242,9.487,9.487,0,1,1-2.3-6.207H16.965a1.241,1.241,0,0,0,0,2.482h5.792A1.241,1.241,0,0,0,24,8.275V2.482a1.241,1.241,0,1,0-2.482,0V4.55A12,12,0,1,0,6.359,23.068a11.91,11.91,0,0,0,6.856,2.173,12.152,12.152,0,0,0,2.109-.185A12,12,0,0,0,25.24,13.239,1.241,1.241,0,0,0,24,12Z"/></g></g></svg>