<svg xmlns="http://www.w3.org/2000/svg" xmlns:xlink="http://www.w3.org/1999/xlink" width="80" height="80" viewBox="0 0 80 80"><defs><style>.a,.e{fill:#fff;}.a{stroke:#707070;}.b{clip-path:url(#a);}.c{fill:#00dd80;}.d{fill:#00aa63;}.f{fill:#e1ebf0;}.g{fill:#b4d2d7;}.h{fill:#6fa5aa;}</style><clipPath id="a"><rect class="a" width="80" height="80" transform="translate(1022 1381)"/></clipPath></defs><g class="b" transform="translate(-1022 -1381)"><g transform="translate(1027.859 1381)"><path class="c" d="M64.606,53.423a40.361,40.361,0,0,1-9.667,15.059A50.6,50.6,0,0,1,36.047,79.676,5.78,5.78,0,0,1,34.211,80h-.069a5.862,5.862,0,0,1-1.127-.111,6.1,6.1,0,0,1-.775-.211A50.6,50.6,0,0,1,13.326,68.491,40.285,40.285,0,0,1,3.662,53.434c-3.9-10.6-3.682-22.268-3.5-31.648l0-.144c.036-.775.059-1.588.072-2.487A8.479,8.479,0,0,1,8.217,10.85c9.2-.513,16.313-3.513,22.393-9.439l.053-.049a5.125,5.125,0,0,1,6.957,0l.052.049c6.081,5.926,13.2,8.926,22.395,9.439a8.479,8.479,0,0,1,7.984,8.306c.013.9.036,1.717.072,2.487l0,.061C68.3,31.1,68.524,42.8,64.606,53.423Zm0,0"/><path class="d" d="M64.606,53.423a40.361,40.361,0,0,1-9.667,15.059A50.6,50.6,0,0,1,36.047,79.676,5.78,5.78,0,0,1,34.211,80V0a5.132,5.132,0,0,1,3.41,1.361l.052.049c6.081,5.926,13.2,8.926,22.395,9.439a8.479,8.479,0,0,1,7.984,8.306c.013.9.036,1.717.072,2.487l0,.061C68.3,31.1,68.524,42.8,64.606,53.423Zm0,0"/><path class="e" d="M54.078,40A19.963,19.963,0,0,1,34.211,59.938h-.07a19.938,19.938,0,1,1,0-39.876h.07A19.963,19.963,0,0,1,54.078,40Zm0,0"/><path class="f" d="M54.078,40A19.963,19.963,0,0,1,34.211,59.938V20.062A19.963,19.963,0,0,1,54.078,40Zm0,0"/><path class="g" d="M43.19,37.129l-8.98,8.981-1.94,1.94a2.35,2.35,0,0,1-3.321,0l-4.172-4.174A2.347,2.347,0,0,1,28.1,40.557l2.513,2.513,9.261-9.261a2.347,2.347,0,0,1,3.319,3.319Zm0,0"/><path class="h" d="M43.19,37.129l-8.98,8.981V39.47l5.66-5.66a2.347,2.347,0,0,1,3.319,3.319Zm0,0"/></g></g></svg>