<svg xmlns="http://www.w3.org/2000/svg" xmlns:xlink="http://www.w3.org/1999/xlink" width="24" height="24" viewBox="0 0 24 24"><defs><style>.a{fill:#264740;}.b{clip-path:url(#a);}</style><clipPath id="a"><rect class="a" width="24" height="24" transform="translate(26 418)"/></clipPath></defs><g class="b" transform="translate(-26 -418)"><g transform="translate(26 419)"><path class="a" d="M23.591,5.881a15.832,15.832,0,0,0-23.182,0,1.526,1.526,0,0,0,0,2.079l2.306,2.425a1.438,1.438,0,0,0,2.045,0A10.132,10.132,0,0,1,7.362,8.4a1.456,1.456,0,0,0,.782-1.254l.348-2.628a10.377,10.377,0,0,1,7.017,0l.344,2.563A1.5,1.5,0,0,0,16.628,8.4a10.162,10.162,0,0,1,2.607,1.986,1.4,1.4,0,0,0,2.045,0L23.591,7.96A1.526,1.526,0,0,0,23.591,5.881Z" transform="translate(0 -0.833)"/><path class="a" d="M18.173,8.823A2.5,2.5,0,0,0,15.966,7.5h-8.6A2.5,2.5,0,0,0,5.161,8.823l-3.2,6A2.512,2.512,0,0,0,1.667,16v3.5a2,2,0,0,0,2,2h16a2,2,0,0,0,2-2V16a2.515,2.515,0,0,0-.294-1.177ZM8.666,18.5a1,1,0,1,1,1-1A1,1,0,0,1,8.666,18.5Zm0-3a1,1,0,1,1,1-1A1,1,0,0,1,8.666,15.5Zm0-3a1,1,0,1,1,1-1A1,1,0,0,1,8.666,12.5Zm3,6a1,1,0,1,1,1-1A1,1,0,0,1,11.667,18.5Zm0-3a1,1,0,1,1,1-1A1,1,0,0,1,11.667,15.5Zm0-3a1,1,0,1,1,1-1A1,1,0,0,1,11.667,12.5Zm3,6a1,1,0,1,1,1-1A1,1,0,0,1,14.666,18.5Zm0-3a1,1,0,1,1,1-1A1,1,0,0,1,14.666,15.5Zm0-3a1,1,0,1,1,1-1A1,1,0,0,1,14.666,12.5Z" transform="translate(0.333 0.5)"/></g></g></svg>