<svg xmlns="http://www.w3.org/2000/svg" xmlns:xlink="http://www.w3.org/1999/xlink" width="80" height="80" viewBox="0 0 80 80"><defs><style>.a{fill:#fff;stroke:#707070;}.b{clip-path:url(#a);}.c{fill:#105c6e;}.d{fill:#26879c;}.e{fill:#de513c;}.f{fill:#fc6249;}.g{fill:#96d1d9;}.h{fill:#f4f2e6;}</style><clipPath id="a"><rect class="a" width="80" height="80" transform="translate(264 1381)"/></clipPath></defs><g class="b" transform="translate(-264 -1381)"><g transform="translate(264 1381)"><path class="c" d="M23.429,15.876,18.757,11.2a5.734,5.734,0,0,0-8.118,0L7.254,14.589a5.743,5.743,0,0,0,0,8.1l4.681,4.691a2.344,2.344,0,0,0,3.315,0c.916-.914,7.261-7.28,8.176-8.193A2.344,2.344,0,0,0,23.429,15.876Z"/><path class="d" d="M40,.469a2.344,2.344,0,0,0-2.344,2.344v7.5a2.344,2.344,0,0,0,4.688,0v-7.5A2.344,2.344,0,0,0,40,.469Z"/><path class="e" d="M45.781,0H34.219a2.344,2.344,0,0,0,0,4.688H45.781a2.344,2.344,0,0,0,0-4.687Z"/><path class="f" d="M40,0H34.219a2.344,2.344,0,0,0,0,4.688H40Z"/><path class="e" d="M65.413,18.534A35.937,35.937,0,0,0,4.063,43.993,35.937,35.937,0,1,0,65.413,18.534Z"/><path class="f" d="M40,7.986A35.972,35.972,0,0,0,4.063,43.993,35.972,35.972,0,0,0,40,80Z"/><path class="g" d="M40,16.959A27.034,27.034,0,1,0,66.982,43.993,27.038,27.038,0,0,0,40,16.959Z"/><path class="h" d="M40,16.959a27.034,27.034,0,0,0,0,54.067Z"/><path class="c" d="M40,22.814a2.344,2.344,0,0,0,2.344-2.344V17.062c-.773-.067-1.554-.1-2.344-.1s-1.571.036-2.344.1V20.47A2.344,2.344,0,0,0,40,22.814Z"/><path class="c" d="M40,65.172a2.344,2.344,0,0,0-2.344,2.344v3.408c.773.067,1.554.1,2.344.1s1.571-.036,2.344-.1V67.516A2.344,2.344,0,0,0,40,65.172Z"/><path class="c" d="M66.879,41.649H63.523a2.344,2.344,0,0,0,0,4.688h3.356c.067-.773.1-1.554.1-2.344S66.946,42.422,66.879,41.649Z"/><path class="c" d="M18.821,43.993a2.344,2.344,0,0,0-2.344-2.344H13.121c-.067.773-.1,1.554-.1,2.344s.036,1.571.1,2.344h3.356A2.344,2.344,0,0,0,18.821,43.993Z"/><path class="c" d="M45.781,42.64H42.475V33.161a2.344,2.344,0,1,0-4.687,0V44.984a2.344,2.344,0,0,0,2.344,2.344h5.65a2.344,2.344,0,0,0,0-4.687Z"/></g></g></svg>