<svg xmlns="http://www.w3.org/2000/svg" xmlns:xlink="http://www.w3.org/1999/xlink" width="20" height="20" viewBox="0 0 20 20"><defs><style>.a,.c{fill:#264740;}.a{stroke:#707070;}.b{clip-path:url(#a);}</style><clipPath id="a"><rect class="a" width="20" height="20" transform="translate(1054 1137)"/></clipPath></defs><g class="b" transform="translate(-1054 -1137)"><g transform="translate(1054 1138.875)"><path class="c" d="M20,3.424a8.549,8.549,0,0,1-2.362.648,4.077,4.077,0,0,0,1.8-2.266,8.194,8.194,0,0,1-2.6.992A4.1,4.1,0,0,0,9.749,5.6a4.222,4.222,0,0,0,.095.935A11.606,11.606,0,0,1,1.393,2.248a4.1,4.1,0,0,0,1.26,5.48A4.049,4.049,0,0,1,.8,7.223v.045A4.119,4.119,0,0,0,4.085,11.3a4.092,4.092,0,0,1-1.075.135,3.625,3.625,0,0,1-.776-.07,4.139,4.139,0,0,0,3.831,2.856A8.239,8.239,0,0,1,.981,15.966,7.679,7.679,0,0,1,0,15.91a11.543,11.543,0,0,0,6.29,1.84A11.59,11.59,0,0,0,17.96,6.083c0-.181-.006-.356-.015-.53A8.18,8.18,0,0,0,20,3.424Z" transform="translate(0 -1.5)"/></g></g></svg>